<?xml version="1.0" standalone="no"?>
<!DOCTYPE svg PUBLIC "-//W3C//DTD SVG 20010904//EN"
 "http://www.w3.org/TR/2001/REC-SVG-20010904/DTD/svg10.dtd">
<svg version="1.0" xmlns="http://www.w3.org/2000/svg"
 width="160.000000pt" height="160.000000pt" viewBox="0 0 160.000000 160.000000"
 preserveAspectRatio="xMidYMid meet">
<metadata>
Created by potrace 1.11, written by Peter Selinger 2001-2013
</metadata>
<g transform="translate(0.000000,160.000000) scale(0.100000,-0.100000)"
fill="#000000" stroke="none">
<path d="M675 1485 c-238 -55 -408 -188 -505 -398 -73 -159 -86 -290 -45 -451
35 -139 83 -224 185 -326 282 -283 698 -283 980 0 102 102 150 187 185 326 29
113 31 193 9 295 -21 95 -89 238 -148 312 -82 101 -231 195 -371 232 -83 23
-217 27 -290 10z m290 -72 c213 -53 398 -232 459 -443 34 -121 30 -244 -14
-390 -54 -182 -211 -340 -405 -407 -71 -24 -94 -27 -205 -27 -108 0 -136 4
-205 27 -270 90 -437 331 -439 632 0 175 57 309 188 440 113 112 233 170 386
184 84 8 160 3 235 -16z"/>
<path d="M576 1171 c-41 -45 -60 -197 -35 -283 15 -56 50 -92 78 -83 74 23 89
289 21 363 -25 27 -42 28 -64 3z"/>
<path d="M960 1168 c-29 -32 -43 -91 -43 -183 0 -140 56 -223 109 -161 30 35
44 86 44 167 0 103 -37 199 -76 199 -7 0 -22 -10 -34 -22z"/>
<path d="M334 696 c-3 -8 -1 -39 5 -68 39 -185 194 -328 389 -358 238 -37 476
122 524 351 6 31 8 64 5 73 -8 21 -14 20 -174 -13 -199 -41 -422 -37 -621 9
-100 24 -121 25 -128 6z m235 -87 c111 -14 457 -6 549 11 35 7 65 10 68 7 3
-3 3 -19 -1 -36 -5 -25 -15 -33 -61 -51 -169 -63 -462 -65 -643 -5 -56 18 -66
28 -77 69 -7 29 -7 29 32 23 21 -4 81 -12 133 -18z"/>
</g>
</svg>
